<?xml version="1.0" standalone="no"?>
<!DOCTYPE svg PUBLIC "-//W3C//DTD SVG 20010904//EN"
 "http://www.w3.org/TR/2001/REC-SVG-20010904/DTD/svg10.dtd">
<svg version="1.0" xmlns="http://www.w3.org/2000/svg"
 width="200.000000pt" height="123.000000pt" viewBox="0 0 200.000000 123.000000"
 preserveAspectRatio="xMidYMid meet">

<g transform="translate(0.000000,123.000000) scale(0.100000,-0.100000)"
fill="#000000" stroke="none">
<path d="M800 846 l0 -326 68 42 c335 211 437 277 439 284 2 7 -466 310 -499
322 -4 2 -8 -143 -8 -322z m222 102 c104 -66 128 -85 126 -102 -4 -27 -258
-190 -273 -175 -7 7 -5 13 5 19 144 87 215 138 215 155 0 20 -44 54 -164 128
-34 21 -59 42 -56 47 3 6 9 10 12 10 3 0 64 -37 135 -82z m-59 -82 c9 -6 17
-14 17 -17 0 -8 -93 -69 -103 -69 -4 0 -7 32 -7 71 l0 71 38 -23 c20 -13 45
-28 55 -33z"/>
<path d="M690 846 l0 -277 45 31 c42 29 45 34 45 75 0 25 -4 45 -10 45 -14 0
-13 243 1 257 5 5 9 29 7 53 -3 38 -7 45 -45 67 l-43 25 0 -276z"/>
</g>
</svg>
